<svg width="284" height="135" viewBox="0 0 284 135" fill="none" xmlns="http://www.w3.org/2000/svg">
<path d="M86.7227 32.3768C99.0489 32.3768 109.778 38.6849 116.128 48.1669C120.709 44.1555 126.672 41.6766 133.285 41.6766C147.801 41.6766 159.566 53.4204 159.566 67.9266C159.566 68.5263 159.546 69.1231 159.509 69.7167C175.207 71.1976 187.504 84.4045 187.504 100.476C187.504 117.54 173.643 131.377 156.566 131.377H63.4414C46.3645 131.377 32.5039 117.54 32.5039 100.476C32.5041 87.6774 40.3335 76.8188 51.3975 72.1405C51.227 70.7745 51.1289 69.3734 51.1289 67.9266C51.129 48.2764 67.0558 32.3768 86.7227 32.3768Z" fill="#E85D00" stroke="#F6F6EE" stroke-width="6"/>
<path d="M25.5039 79.3768L65.0039 60.8768L75.5039 79.3768V128.377H25.5039V79.3768Z" fill="#E85D00"/>
<path fill-rule="evenodd" clip-rule="evenodd" d="M50.7989 25.2576C55.6935 16.0831 68.8438 16.0832 73.7384 25.2576L120.485 112.888C125.105 121.547 118.83 132.007 109.016 132.007H15.5216C5.70722 132.007 -0.567527 121.547 4.05188 112.888L50.7989 25.2576ZM73.9689 70.8319C69.0712 61.6703 55.9368 61.6703 51.0392 70.8319L29.4288 111.258C24.7997 119.917 31.0742 130.387 40.8937 130.387H84.1144C93.9338 130.387 100.208 119.917 95.5792 111.258L73.9689 70.8319Z" fill="#E85D00"/>
<path d="M50.7989 25.2576L48.5932 24.0809L48.5932 24.081L50.7989 25.2576ZM73.7384 25.2576L75.9442 24.081L75.9441 24.0809L73.7384 25.2576ZM120.485 112.888L122.691 111.711V111.711L120.485 112.888ZM15.5216 132.007L15.5216 134.507H15.5216V132.007ZM4.05188 112.888L1.84611 111.711L1.84611 111.711L4.05188 112.888ZM73.9689 70.8319L76.1736 69.6533L76.1736 69.6532L73.9689 70.8319ZM51.0392 70.8319L48.8344 69.6532L48.8344 69.6533L51.0392 70.8319ZM29.4288 111.258L27.2241 110.079L27.2241 110.079L29.4288 111.258ZM95.5792 111.258L97.784 110.079L97.784 110.079L95.5792 111.258ZM50.7989 25.2576L53.0047 26.4344C56.9579 19.0242 67.5793 19.0242 71.5327 26.4344L73.7384 25.2576L75.9441 24.0809C70.1083 13.1421 54.429 13.142 48.5932 24.0809L50.7989 25.2576ZM73.7384 25.2576L71.5326 26.4343L118.28 114.064L120.485 112.888L122.691 111.711L75.9442 24.081L73.7384 25.2576ZM120.485 112.888L118.28 114.064C122.011 121.059 116.943 129.507 109.016 129.507V132.007V134.507C120.718 134.507 128.199 122.035 122.691 111.711L120.485 112.888ZM109.016 132.007V129.507H15.5216V132.007V134.507H109.016V132.007ZM15.5216 132.007L15.5216 129.507C7.59473 129.507 2.52655 121.058 6.25764 114.064L4.05188 112.888L1.84611 111.711C-3.6616 122.035 3.81971 134.506 15.5216 134.507L15.5216 132.007ZM4.05188 112.888L6.25764 114.064L53.0047 26.4343L50.7989 25.2576L48.5932 24.081L1.84611 111.711L4.05188 112.888ZM73.9689 70.8319L76.1736 69.6532C70.3341 58.7298 54.6739 58.7298 48.8344 69.6532L51.0392 70.8319L53.2439 72.0105C57.1997 64.6107 67.8083 64.6107 71.7641 72.0105L73.9689 70.8319ZM51.0392 70.8319L48.8344 69.6533L27.2241 110.079L29.4288 111.258L31.6336 112.436L53.2439 72.0105L51.0392 70.8319ZM29.4288 111.258L27.2241 110.079C21.7047 120.404 29.1858 132.887 40.8937 132.887V130.387V127.887C32.9626 127.887 27.8947 119.431 31.6336 112.436L29.4288 111.258ZM40.8937 130.387V132.887H84.1144V130.387V127.887H40.8937V130.387ZM84.1144 130.387V132.887C95.8222 132.887 103.303 120.404 97.784 110.079L95.5792 111.258L93.3745 112.436C97.1134 119.431 92.0454 127.887 84.1144 127.887V130.387ZM95.5792 111.258L97.784 110.079L76.1736 69.6533L73.9689 70.8319L71.7641 72.0105L93.3745 112.436L95.5792 111.258Z" fill="#F6F6EE"/>
<circle cx="144.504" cy="83.3768" r="22" fill="#E85D00" stroke="#F6F6EE" stroke-width="5"/>
<circle cx="188.504" cy="83.3768" r="22" fill="#E85D00" stroke="#F6F6EE" stroke-width="5"/>
<circle cx="188.504" cy="83.3768" r="9.5" fill="#E85D00" stroke="#F6F6EE" stroke-width="9"/>
<line x1="188.504" y1="67.3768" x2="188.504" y2="98.3768" stroke="#E85D00" stroke-width="2"/>
<line x1="199.17" y1="72.6272" x2="177.25" y2="94.5475" stroke="#E85D00" stroke-width="2"/>
<line x1="177.249" y1="71.206" x2="199.169" y2="93.1263" stroke="#E85D00" stroke-width="2"/>
<line x1="172.504" y1="83.3768" x2="206.504" y2="83.3768" stroke="#E85D00" stroke-width="2"/>
<path d="M42.3415 128.377L42.0214 128.761L42.1604 128.877H42.3415V128.377ZM38.552 109.85L38.9055 109.497L38.4611 109.052L38.128 109.585L38.552 109.85ZM41.0062 115.663C40.9608 115.935 41.1448 116.193 41.4172 116.238C41.6895 116.284 41.9472 116.1 41.9926 115.827L41.4994 115.745L41.0062 115.663ZM38.973 110.296L38.6009 110.63L38.973 110.296ZM49.4994 96.7978L49.8898 97.1102L49.4994 96.7978ZM53.2888 90.061L53.1994 89.5691L52.4507 89.7052L52.8728 90.3383L53.2888 90.061ZM56.5827 95.4686C56.5462 95.7423 56.7385 95.9938 57.0122 96.0303C57.2859 96.0668 57.5374 95.8745 57.5739 95.6008L57.0783 95.5347L56.5827 95.4686ZM54.973 90.1835L54.8122 90.6569L54.973 90.1835ZM62.8353 80.7888C63.0628 80.6323 63.1204 80.3211 62.964 80.0935C62.8076 79.866 62.4963 79.8083 62.2687 79.9647L62.552 80.3768L62.8353 80.7888ZM48.7783 112.398C48.5574 112.564 48.5126 112.877 48.6783 113.098C48.844 113.319 49.1574 113.364 49.3783 113.198L49.0783 112.798L48.7783 112.398ZM49.9204 105.219L50.2204 104.819L49.6654 104.403L49.4461 105.061L49.9204 105.219ZM49.4994 106.482V106.982H49.8597L49.9737 106.64L49.4994 106.482ZM62.552 128.877C62.8281 128.877 63.052 128.653 63.052 128.377C63.052 128.101 62.8281 127.877 62.552 127.877V128.377V128.877ZM63.0263 104.535C63.1137 104.273 62.9721 103.99 62.7101 103.902C62.4481 103.815 62.165 103.957 62.0776 104.219L62.552 104.377L63.0263 104.535ZM62.8015 112.389C63.0408 112.251 63.1231 111.946 62.9853 111.706C62.8475 111.467 62.5418 111.385 62.3025 111.522L62.552 111.956L62.8015 112.389ZM62.852 116.566C63.0729 116.401 63.1177 116.087 62.952 115.866C62.7863 115.645 62.4729 115.601 62.252 115.766L62.552 116.166L62.852 116.566ZM62.862 92.769C63.0787 92.5978 63.1155 92.2834 62.9443 92.0667C62.773 91.8501 62.4586 91.8133 62.242 91.9845L62.552 92.3768L62.862 92.769ZM42.3415 128.377L42.6616 127.993C41.0325 126.635 38.8826 124.096 37.7602 120.926C36.6447 117.775 36.5429 114.008 38.976 110.115L38.552 109.85L38.128 109.585C35.5084 113.777 35.6172 117.869 36.8175 121.259C38.0109 124.63 40.282 127.311 42.0214 128.761L42.3415 128.377ZM38.552 109.85L38.1984 110.204C38.3201 110.326 38.456 110.469 38.6009 110.63L38.973 110.296L39.3452 109.963C39.1893 109.789 39.041 109.632 38.9055 109.497L38.552 109.85ZM38.973 110.296L38.6009 110.63C39.1649 111.259 39.8446 112.141 40.3438 113.072C40.8521 114.021 41.1274 114.935 41.0062 115.663L41.4994 115.745L41.9926 115.827C42.1696 114.765 41.7636 113.604 41.2252 112.6C40.6776 111.578 39.945 110.631 39.3452 109.963L38.973 110.296ZM38.973 110.296L39.4431 110.467C39.9846 108.974 41.2439 106.611 42.8702 104.456C44.5088 102.284 46.4471 100.422 48.3166 99.7985L48.1585 99.3241L48.0004 98.8498C45.8278 99.574 43.7348 101.65 42.0719 103.853C40.3967 106.073 39.0843 108.523 38.503 110.126L38.973 110.296ZM48.6573 106.482L49.1112 106.273C48.7173 105.419 48.2721 103.909 48.252 102.213C48.2319 100.522 48.6336 98.6804 49.8898 97.1102L49.4994 96.7978L49.1089 96.4855C47.6704 98.2837 47.23 100.372 47.252 102.225C47.274 104.072 47.755 105.72 48.2033 106.692L48.6573 106.482ZM49.4994 96.7978L49.8898 97.1102C51.5544 95.0294 52.7444 93.6225 53.3958 92.5911C53.7241 92.0713 53.9527 91.5923 54.0205 91.1264C54.0924 90.632 53.9778 90.1931 53.7049 89.7836L53.2888 90.061L52.8728 90.3383C53.0209 90.5604 53.0642 90.7531 53.0309 90.9824C52.9934 91.2402 52.8536 91.577 52.5503 92.0572C51.9385 93.0258 50.8128 94.3557 49.1089 96.4855L49.4994 96.7978ZM53.2888 90.061L53.3783 90.5529C53.7853 90.4789 54.3087 90.4858 54.8122 90.6569L54.973 90.1835L55.1339 89.7101C54.4476 89.4769 53.7495 89.469 53.1994 89.5691L53.2888 90.061ZM54.973 90.1835L54.8122 90.6569C55.3607 90.8433 55.8936 91.2257 56.2485 91.9423C56.6092 92.6705 56.8069 93.7869 56.5827 95.4686L57.0783 95.5347L57.5739 95.6008C57.8145 93.7961 57.6218 92.4619 57.1446 91.4985C56.6618 90.5236 55.9096 89.9736 55.1339 89.7101L54.973 90.1835ZM54.973 90.1835L55.4665 90.2638C55.7226 88.6905 57.543 84.4272 62.8353 80.7888L62.552 80.3768L62.2687 79.9647C56.782 83.7369 54.7849 88.2264 54.4795 90.1032L54.973 90.1835ZM47.8151 128.377L48.1117 127.974C46.8587 127.051 45.1136 125.01 44.2596 122.35C43.4135 119.715 43.4402 116.472 45.7049 113.075L45.2888 112.798L44.8728 112.52C42.4217 116.197 42.3782 119.762 43.3075 122.656C44.2289 125.526 46.1049 127.738 47.5185 128.779L47.8151 128.377ZM45.2888 112.798L45.7857 112.854C45.851 112.274 46.0653 111.507 46.4503 111.017C46.6359 110.781 46.8405 110.635 47.0649 110.579C47.2852 110.523 47.5913 110.537 48.0161 110.745L48.2362 110.296L48.4563 109.847C47.8705 109.56 47.3205 109.483 46.8207 109.609C46.3249 109.734 45.9453 110.042 45.6642 110.399C45.1159 111.096 44.8671 112.075 44.792 112.742L45.2888 112.798ZM48.2362 110.296L48.0161 110.745C48.9662 111.211 49.1154 111.612 49.1266 111.792C49.1398 112.002 48.9936 112.236 48.7783 112.398L49.0783 112.798L49.3783 113.198C49.7244 112.938 50.1677 112.418 50.1247 111.729C50.0798 111.012 49.5272 110.372 48.4563 109.847L48.2362 110.296ZM45.2888 112.798L44.8222 112.977C45.1911 113.937 45.963 115.241 47.1156 115.896C47.7083 116.232 48.4059 116.398 49.1794 116.245C49.9443 116.093 50.7324 115.64 51.5371 114.836L51.1836 114.482L50.83 114.128C50.1189 114.84 49.5 115.162 48.9851 115.264C48.4788 115.364 48.0237 115.262 47.6094 115.026C46.748 114.537 46.0883 113.484 45.7555 112.618L45.2888 112.798ZM51.1836 114.482L51.5947 114.767C52.2692 113.792 53.0076 112.14 53.0414 110.312C53.0757 108.455 52.3796 106.438 50.2204 104.819L49.9204 105.219L49.6204 105.619C51.5033 107.031 52.0704 108.733 52.0415 110.294C52.0122 111.883 51.3611 113.347 50.7725 114.197L51.1836 114.482ZM49.9204 105.219L49.4461 105.061L49.025 106.324L49.4994 106.482L49.9737 106.64L50.3948 105.377L49.9204 105.219ZM49.4994 106.482V105.982H48.6573V106.482V106.982H49.4994V106.482ZM48.6573 106.482L48.2259 106.229C47.9901 106.631 47.6943 107.306 47.5455 108.065C47.3976 108.819 47.3831 109.72 47.7903 110.523L48.2362 110.296L48.6821 110.07C48.4156 109.545 48.4011 108.898 48.5269 108.257C48.6517 107.62 48.9033 107.051 49.0886 106.735L48.6573 106.482ZM52.4467 128.377V127.877H42.3415V128.377V128.877H52.4467V128.377ZM52.4467 128.377L52.7646 127.991C51.6394 127.064 50.2138 125.278 49.6371 122.971C49.0665 120.689 49.3158 117.86 51.5861 114.779L51.1836 114.482L50.781 114.185C48.3355 117.504 48.0234 120.64 48.6669 123.214C49.3042 125.763 50.868 127.724 52.1289 128.763L52.4467 128.377ZM56.2362 128.377V127.877H52.4467V128.377V128.877H56.2362V128.377ZM56.2362 128.377L56.6078 128.042C55.4246 126.728 54.2968 124.371 54.7711 121.598C55.2431 118.838 57.3237 115.543 62.8015 112.389L62.552 111.956L62.3025 111.522C56.6645 114.769 54.324 118.28 53.7855 121.429C53.2492 124.565 54.5215 127.219 55.8645 128.711L56.2362 128.377ZM62.552 128.377V127.877H59.3941V128.377V128.877H62.552V128.377ZM59.3941 128.377V127.877H56.2362V128.377V128.877H59.3941V128.377ZM59.3941 128.377L59.6714 127.961C58.615 127.256 57.5115 125.866 57.5728 123.983C57.6341 122.098 58.8664 119.555 62.852 116.566L62.552 116.166L62.252 115.766C58.1533 118.84 56.6488 121.631 56.5733 123.95C56.4978 126.27 57.8574 127.953 59.1167 128.793L59.3941 128.377ZM51.1836 114.482L51.4977 114.871C53.2342 113.469 55.8148 111.342 58.0832 109.387L57.7567 109.008L57.4303 108.63C55.1723 110.576 52.6003 112.695 50.8694 114.093L51.1836 114.482ZM57.7567 109.008L58.0832 109.387C59.3355 108.308 60.4973 107.276 61.3703 106.445C61.8062 106.031 62.176 105.661 62.4508 105.356C62.588 105.204 62.707 105.063 62.8002 104.936C62.886 104.82 62.9782 104.679 63.0263 104.535L62.552 104.377L62.0776 104.219C62.0816 104.207 62.0689 104.243 61.9952 104.343C61.9291 104.433 61.834 104.547 61.7087 104.686C61.4585 104.963 61.1094 105.313 60.6811 105.721C59.8257 106.535 58.6783 107.554 57.4303 108.63L57.7567 109.008ZM57.7567 109.008L58.0605 108.611C56.7964 107.644 55.4834 105.705 55.7047 103.039C55.9264 100.368 57.6982 96.8501 62.862 92.769L62.552 92.3768L62.242 91.9845C56.9637 96.156 54.9616 99.9013 54.7081 102.956C54.4542 106.017 55.9646 108.267 57.4529 109.405L57.7567 109.008Z" fill="#F6F6EE"/>
<path d="M82.8197 128.377L83.1398 128.761L83.0007 128.877H82.8197V128.377ZM86.6091 109.85L86.2556 109.497L86.7 109.052L87.0331 109.585L86.6091 109.85ZM84.155 115.663C84.2004 115.935 84.0164 116.193 83.744 116.238C83.4716 116.284 83.214 116.1 83.1686 115.827L83.6618 115.745L84.155 115.663ZM86.1881 110.296L86.5602 110.63L86.1881 110.296ZM75.6618 96.7978L75.2713 97.1102L75.6618 96.7978ZM71.8723 90.061L71.9617 89.5691L72.7104 89.7052L72.2883 90.3383L71.8723 90.061ZM68.5784 95.4686C68.6149 95.7423 68.4226 95.9938 68.1489 96.0303C67.8752 96.0668 67.6237 95.8745 67.5872 95.6008L68.0828 95.5347L68.5784 95.4686ZM70.1881 90.1835L70.3489 90.6569L70.1881 90.1835ZM62.3259 80.7888C62.0983 80.6323 62.0407 80.3211 62.1971 80.0935C62.3536 79.866 62.6649 79.8083 62.8924 79.9647L62.6091 80.3768L62.3259 80.7888ZM76.3828 112.398C76.6037 112.564 76.6485 112.877 76.4828 113.098C76.3171 113.319 76.0037 113.364 75.7828 113.198L76.0828 112.798L76.3828 112.398ZM75.2407 105.219L74.9407 104.819L75.4957 104.403L75.7151 105.061L75.2407 105.219ZM75.6618 106.482V106.982H75.3014L75.1874 106.64L75.6618 106.482ZM62.6091 128.877C62.333 128.877 62.1091 128.653 62.1091 128.377C62.1091 128.101 62.333 127.877 62.6091 127.877V128.377V128.877ZM62.1348 104.535C62.0475 104.273 62.1891 103.99 62.451 103.902C62.713 103.815 62.9962 103.957 63.0835 104.219L62.6091 104.377L62.1348 104.535ZM62.3597 112.389C62.1204 112.251 62.0381 111.946 62.1758 111.706C62.3136 111.467 62.6193 111.385 62.8586 111.522L62.6091 111.956L62.3597 112.389ZM62.3091 116.566C62.0882 116.401 62.0435 116.087 62.2091 115.866C62.3748 115.645 62.6882 115.601 62.9091 115.766L62.6091 116.166L62.3091 116.566ZM62.2991 92.769C62.0825 92.5978 62.0456 92.2834 62.2169 92.0667C62.3881 91.8501 62.7025 91.8133 62.9192 91.9845L62.6091 92.3768L62.2991 92.769ZM82.8197 128.377L82.4996 127.993C84.1287 126.635 86.2786 124.096 87.401 120.926C88.5164 117.775 88.6182 114.008 86.1851 110.115L86.6091 109.85L87.0331 109.585C89.6527 113.777 89.544 117.869 88.3436 121.259C87.1502 124.63 84.8791 127.311 83.1398 128.761L82.8197 128.377ZM86.6091 109.85L86.9627 110.204C86.8411 110.326 86.7052 110.469 86.5602 110.63L86.1881 110.296L85.8159 109.963C85.9719 109.789 86.1202 109.632 86.2556 109.497L86.6091 109.85ZM86.1881 110.296L86.5602 110.63C85.9963 111.259 85.3165 112.141 84.8173 113.072C84.309 114.021 84.0337 114.935 84.155 115.663L83.6618 115.745L83.1686 115.827C82.9916 114.765 83.3975 113.604 83.936 112.6C84.4835 111.578 85.2161 110.631 85.8159 109.963L86.1881 110.296ZM86.1881 110.296L85.718 110.467C85.1765 108.974 83.9172 106.611 82.291 104.456C80.6524 102.284 78.714 100.422 76.8445 99.7985L77.0026 99.3241L77.1607 98.8498C79.3333 99.574 81.4263 101.65 83.0892 103.853C84.7645 106.073 86.0769 108.523 86.6581 110.126L86.1881 110.296ZM76.5039 106.482L76.0499 106.273C76.4438 105.419 76.889 103.909 76.9092 102.213C76.9293 100.522 76.5275 98.6804 75.2713 97.1102L75.6618 96.7978L76.0522 96.4855C77.4908 98.2837 77.9311 100.372 77.9091 102.225C77.8872 104.072 77.4061 105.72 76.9579 106.692L76.5039 106.482ZM75.6618 96.7978L75.2713 97.1102C73.6068 95.0294 72.4167 93.6225 71.7653 92.5911C71.437 92.0713 71.2084 91.5923 71.1407 91.1264C71.0688 90.632 71.1833 90.1931 71.4563 89.7836L71.8723 90.061L72.2883 90.3383C72.1403 90.5604 72.0969 90.7531 72.1303 90.9824C72.1678 91.2402 72.3076 91.577 72.6108 92.0572C73.2226 93.0258 74.3484 94.3557 76.0522 96.4855L75.6618 96.7978ZM71.8723 90.061L71.7829 90.5529C71.3758 90.4789 70.8524 90.4858 70.3489 90.6569L70.1881 90.1835L70.0272 89.7101C70.7136 89.4769 71.4116 89.469 71.9617 89.5691L71.8723 90.061ZM70.1881 90.1835L70.3489 90.6569C69.8004 90.8433 69.2675 91.2257 68.9126 91.9423C68.552 92.6705 68.3542 93.7869 68.5784 95.4686L68.0828 95.5347L67.5872 95.6008C67.3466 93.7961 67.5393 92.4619 68.0165 91.4985C68.4993 90.5236 69.2515 89.9736 70.0272 89.7101L70.1881 90.1835ZM70.1881 90.1835L69.6946 90.2638C69.4386 88.6905 67.6181 84.4272 62.3259 80.7888L62.6091 80.3768L62.8924 79.9647C68.3791 83.7369 70.3762 88.2264 70.6816 90.1032L70.1881 90.1835ZM77.346 128.377L77.0494 127.974C78.3025 127.051 80.0475 125.01 80.9015 122.35C81.7477 119.715 81.721 116.472 79.4563 113.075L79.8723 112.798L80.2883 112.52C82.7394 116.197 82.7829 119.762 81.8536 122.656C80.9322 125.526 79.0562 127.738 77.6426 128.779L77.346 128.377ZM79.8723 112.798L79.3754 112.854C79.3102 112.274 79.0958 111.507 78.7109 111.017C78.5252 110.781 78.3206 110.635 78.0962 110.579C77.8759 110.523 77.5698 110.537 77.145 110.745L76.9249 110.296L76.7049 109.847C77.2906 109.56 77.8406 109.483 78.3405 109.609C78.8363 109.734 79.2159 110.042 79.4969 110.399C80.0453 111.096 80.2941 112.075 80.3692 112.742L79.8723 112.798ZM76.9249 110.296L77.145 110.745C76.1949 111.211 76.0458 111.612 76.0345 111.792C76.0214 112.002 76.1675 112.236 76.3828 112.398L76.0828 112.798L75.7828 113.198C75.4367 112.938 74.9934 112.418 75.0364 111.729C75.0813 111.012 75.6339 110.372 76.7049 109.847L76.9249 110.296ZM79.8723 112.798L80.339 112.977C79.97 113.937 79.1981 115.241 78.0455 115.896C77.4528 116.232 76.7553 116.398 75.9817 116.245C75.2168 116.093 74.4287 115.64 73.624 114.836L73.9776 114.482L74.3311 114.128C75.0422 114.84 75.6611 115.162 76.176 115.264C76.6823 115.364 77.1374 115.262 77.5517 115.026C78.4131 114.537 79.0728 113.484 79.4056 112.618L79.8723 112.798ZM73.9776 114.482L73.5665 114.767C72.892 113.792 72.1535 112.14 72.1198 110.312C72.0854 108.455 72.7815 106.438 74.9407 104.819L75.2407 105.219L75.5407 105.619C73.6578 107.031 73.0907 108.733 73.1196 110.294C73.149 111.883 73.8 113.347 74.3887 114.197L73.9776 114.482ZM75.2407 105.219L75.7151 105.061L76.1361 106.324L75.6618 106.482L75.1874 106.64L74.7664 105.377L75.2407 105.219ZM75.6618 106.482V105.982H76.5039V106.482V106.982H75.6618V106.482ZM76.5039 106.482L76.9352 106.229C77.171 106.631 77.4668 107.306 77.6156 108.065C77.7635 108.819 77.778 109.72 77.3708 110.523L76.9249 110.296L76.4791 110.07C76.7455 109.545 76.76 108.898 76.6343 108.257C76.5094 107.62 76.2578 107.051 76.0725 106.735L76.5039 106.482ZM72.7144 128.377V127.877H82.8197V128.377V128.877H72.7144V128.377ZM72.7144 128.377L72.3966 127.991C73.5217 127.064 74.9473 125.278 75.5241 122.971C76.0946 120.689 75.8453 117.86 73.575 114.779L73.9776 114.482L74.3801 114.185C76.8256 117.504 77.1377 120.64 76.4942 123.214C75.8569 125.763 74.2931 127.724 73.0323 128.763L72.7144 128.377ZM68.9249 128.377V127.877H72.7144V128.377V128.877H68.9249V128.377ZM68.9249 128.377L68.5533 128.042C69.7366 126.728 70.8643 124.371 70.39 121.598C69.918 118.838 67.8374 115.543 62.3597 112.389L62.6091 111.956L62.8586 111.522C68.4967 114.769 70.8371 118.28 71.3757 121.429C71.9119 124.565 70.6396 127.219 69.2966 128.711L68.9249 128.377ZM62.6091 128.377V127.877H65.767V128.377V128.877H62.6091V128.377ZM65.767 128.377V127.877H68.9249V128.377V128.877H65.767V128.377ZM65.767 128.377L65.4897 127.961C66.5461 127.256 67.6497 125.866 67.5884 123.983C67.527 122.098 66.2947 119.555 62.3091 116.566L62.6091 116.166L62.9091 115.766C67.0078 118.84 68.5123 121.631 68.5878 123.95C68.6634 126.27 67.3037 127.953 66.0444 128.793L65.767 128.377ZM73.9776 114.482L73.6634 114.871C71.927 113.469 69.3463 111.342 67.078 109.387L67.4044 109.008L67.7309 108.63C69.9888 110.576 72.5608 112.695 74.2917 114.093L73.9776 114.482ZM67.4044 109.008L67.078 109.387C65.8256 108.308 64.6638 107.276 63.7908 106.445C63.355 106.031 62.9851 105.661 62.7103 105.356C62.5731 105.204 62.4542 105.063 62.3609 104.936C62.2751 104.82 62.1829 104.679 62.1348 104.535L62.6091 104.377L63.0835 104.219C63.0796 104.207 63.0923 104.243 63.1659 104.343C63.2321 104.433 63.3271 104.547 63.4525 104.686C63.7027 104.963 64.0518 105.313 64.4801 105.721C65.3354 106.535 66.4828 107.554 67.7309 108.63L67.4044 109.008ZM67.4044 109.008L67.1007 108.611C68.3647 107.644 69.6777 105.705 69.4565 103.039C69.2348 100.368 67.4629 96.8501 62.2991 92.769L62.6091 92.3768L62.9192 91.9845C68.1975 96.156 70.1995 99.9013 70.453 102.956C70.707 106.017 69.1965 108.267 67.7082 109.405L67.4044 109.008Z" fill="#F6F6EE"/>
<path d="M244.925 89.4303C234.297 107.744 214.722 102.285 206.264 97.2654C207.973 96.1998 210.267 94.0496 211.635 91.0452C213.031 87.9765 212.802 83.7452 210.652 79.14C216.668 81.3636 229.571 82.9497 233.055 71.5051C225.593 78.3971 213.623 71.9307 217.944 61.4446C222.265 50.9584 234.82 41.054 240.481 38.5313C238.305 41.9433 232.233 47.7058 239.149 54.8491C239.255 47.7373 243.452 31.322 259.389 22.5558C263.942 20.8541 274.978 14.2597 282.703 1.49597C283.525 8.22379 283.299 23.9754 275.817 33.1591C268.335 42.3428 264.911 40.9318 264.134 39.0783C264.674 37.7676 264.563 35.4215 259.795 36.5235C255.027 37.6255 253.578 44.7565 253.449 48.1842C256.265 47.2251 259.372 47.0829 262.599 48.4124C255.018 53.7222 256.572 57.4291 253.568 68.458C251.164 77.281 246.804 86.1158 244.925 89.4303Z" fill="#E85D00"/>
<path d="M211.635 91.0452C213.031 87.9765 212.802 83.7452 210.652 79.14C216.668 81.3636 229.571 82.9497 233.055 71.5051C225.593 78.3971 213.623 71.9307 217.944 61.4446C222.265 50.9584 234.82 41.054 240.481 38.5313C238.305 41.9433 232.233 47.7058 239.149 54.8491M211.635 91.0452C210.267 94.0496 207.973 96.1998 206.264 97.2654C214.722 102.285 234.297 107.744 244.925 89.4303C246.804 86.1158 251.164 77.281 253.568 68.458C256.572 57.4291 255.018 53.7222 262.599 48.4124C259.372 47.0829 256.265 47.2251 253.449 48.1842M211.635 91.0452C218.297 93.7908 233.59 94.8795 241.463 77.2701C242.747 74.5348 244.171 69.4751 243.534 64.3231M239.149 54.8491C240.165 55.8986 240.978 57.0265 241.619 58.2014M239.149 54.8491C239.255 47.7373 243.452 31.322 259.389 22.5558C263.942 20.8541 274.978 14.2597 282.703 1.49597C283.525 8.22379 283.299 23.9754 275.817 33.1591C268.335 42.3428 264.911 40.9318 264.134 39.0783C264.674 37.7676 264.563 35.4215 259.795 36.5235C255.027 37.6255 253.578 44.7565 253.449 48.1842M243.534 64.3231C244.065 65.053 245.761 66.4675 248.3 66.2872M243.534 64.3231C243.277 62.249 242.687 60.1598 241.619 58.2014M241.619 58.2014C243.626 54.9745 247.989 50.0438 253.449 48.1842" stroke="#F6F6EE" stroke-linecap="round"/>
</svg>
